<svg width="55" height="52" viewBox="0 0 55 52" fill="none" xmlns="http://www.w3.org/2000/svg">
<path d="M54.2096 0.899219C53.8624 0.634824 53.4451 0.478337 53.0096 0.449219C52.4096 0.449219 50.1776 0.449219 37.0496 11.7832C31.5296 16.4092 25.4156 22.0732 20.0456 27.1492L15.7196 31.4752C7.52364 32.3992 6.47964 37.7452 5.58564 41.9212C4.84164 45.5212 4.38564 47.4412 1.38564 47.7412C1.15363 47.7567 0.935116 47.8558 0.770693 48.0203C0.60627 48.1847 0.507114 48.4032 0.491642 48.6352C0.461737 48.7432 0.453569 48.856 0.467611 48.9671C0.481653 49.0783 0.517627 49.1855 0.573444 49.2826C0.629261 49.3797 0.70381 49.4648 0.792766 49.5329C0.881721 49.601 0.983312 49.6507 1.09164 49.6792C3.94954 50.7909 6.97818 51.3999 10.0436 51.4792C15.2636 51.4792 21.8276 49.3912 23.9156 39.8452C30.1976 33.4192 38.0996 24.5992 44.3636 17.1592C47.6456 13.1332 50.3276 9.70122 51.9716 7.16322C54.5096 3.43722 55.1036 1.79922 54.2096 0.899219ZM20.7956 29.3992L26.0156 34.7692C24.9716 35.8132 24.0776 36.8572 23.0156 37.9012L17.6636 32.3992C18.5636 31.4812 19.6076 30.4372 20.7956 29.3992ZM10.0556 49.3792C8.23825 49.4053 6.42748 49.1544 4.68564 48.6352C6.62364 47.2912 7.08564 44.7592 7.51764 42.3712C8.41164 38.1712 9.15564 34.3192 15.8696 33.4192L21.9896 39.6832C20.3516 46.0972 16.4696 49.3792 10.0556 49.3792ZM41.9996 16.8592C37.5236 22.2292 32.3036 28.0492 27.5336 33.2692L22.1396 27.8992C27.2096 23.0992 33.1796 17.7532 38.3996 13.2832C47.3516 5.52522 50.9276 3.43722 52.2716 2.69322C51.6776 4.19922 49.5896 7.76322 41.9996 16.8592Z" fill="#212121"/>
</svg>
