<svg width="57" height="50" viewBox="0 0 57 50" fill="none" xmlns="http://www.w3.org/2000/svg">
<path d="M28.4498 48.3282L24.4778 44.3563L20.0078 48.3282L16.0358 44.2362L11.4398 48.3282L1.50977 38.2782L5.77577 34.0303L1.50977 29.3383L5.73377 25.1203L1.50977 20.8963L5.60777 16.1802L1.50977 11.9623L11.4398 1.90625L16.0358 6.00425L20.0078 1.90625L24.4778 5.87825L28.5698 2.03225L32.4218 5.87825L36.8858 1.90625L40.8578 6.00425L45.4538 1.90625L55.3838 11.9623L51.2858 16.1802L55.3838 20.8963L51.1598 25.1203L55.3838 29.3383L51.1178 34.0303L55.3838 38.2782L45.4538 48.3282L40.8578 44.2362L36.8858 48.3282L32.4218 44.3563L28.4498 48.3282Z" stroke="white" stroke-width="2" stroke-miterlimit="10"/>
</svg>
