<svg width="55" height="50" viewBox="0 0 55 50" fill="none" xmlns="http://www.w3.org/2000/svg">
<path d="M0.672715 43.0367C0.668966 44.1746 0.973777 45.2922 1.55472 46.2707C2.09674 47.3029 2.90988 48.1679 3.90672 48.7727C4.93982 49.3507 6.10388 49.6543 7.28772 49.6543C8.47155 49.6543 9.63561 49.3507 10.6687 48.7727L17.8687 44.5067C18.8943 43.9405 19.7493 43.1098 20.3447 42.1009C20.9401 41.0921 21.2542 39.9421 21.2542 38.7707C21.2542 37.5992 20.9401 36.4492 20.3447 35.4404C19.7493 34.4316 18.8943 33.6008 17.8687 33.0347C17.4191 32.7473 16.921 32.544 16.3987 32.4347L16.9987 31.9907C17.1487 31.9907 17.1487 31.9907 17.2927 31.8407L21.4087 29.4887L44.9287 43.1807C45.0644 43.2531 45.2159 43.2911 45.3697 43.2911C45.5236 43.2911 45.675 43.2531 45.8107 43.1807L53.4607 41.1227C53.6498 41.0829 53.8224 40.987 53.9561 40.8476C54.0898 40.7081 54.1783 40.5316 54.21 40.341C54.2418 40.1505 54.2153 39.9548 54.1341 39.7795C54.0529 39.6043 53.9206 39.4576 53.7547 39.3587L29.0527 25.0967L53.7547 10.8347C53.9206 10.7357 54.0529 10.5891 54.1341 10.4138C54.2153 10.2385 54.2418 10.0428 54.21 9.85227C54.1783 9.66173 54.0898 9.48519 53.9561 9.34575C53.8224 9.2063 53.6498 9.11043 53.4607 9.07066L45.8107 7.00066C45.675 6.92818 45.5236 6.89026 45.3697 6.89026C45.2159 6.89026 45.0644 6.92818 44.9287 7.00066L21.4027 20.6867L17.2867 18.3347C17.1367 18.1847 17.1367 18.1847 16.9927 18.1847L9.19272 13.6247C9.63671 13.4747 10.2247 13.1807 10.6627 13.0247C11.6593 12.4257 12.4744 11.5671 13.0207 10.5407C13.6035 9.50835 13.9075 8.3421 13.9027 7.15666C13.9191 5.99997 13.6284 4.85963 13.0603 3.85195C12.4922 2.84427 11.6669 2.00531 10.6687 1.42066C9.63561 0.842593 8.47155 0.539063 7.28772 0.539062C6.10388 0.539063 4.93982 0.842593 3.90672 1.42066C2.93009 2.02907 2.12208 2.87323 1.55697 3.87554C0.991868 4.87784 0.687796 6.00612 0.672715 7.15666C0.65631 8.31335 0.947002 9.45369 1.51514 10.4614C2.08328 11.4691 2.90853 12.308 3.90672 12.8927V13.0427L15.8167 19.8047L18.4627 25.0967L15.8167 30.4007L11.2567 33.0467L3.90672 37.1507C2.90291 37.7664 2.0768 38.633 1.50973 39.6651C0.942654 40.6972 0.654181 41.8592 0.672715 43.0367ZM2.73072 43.0367C2.70811 42.2373 2.90121 41.4466 3.28974 40.7477C3.67827 40.0488 4.24788 39.4674 4.93871 39.0647L12.2887 34.7987C12.9704 34.3659 13.7612 34.1361 14.5687 34.1361C15.3762 34.1361 16.167 34.3659 16.8487 34.7987C17.5609 35.1883 18.1552 35.7623 18.5692 36.4607C18.9832 37.159 19.2016 37.9558 19.2016 38.7677C19.2016 39.5795 18.9832 40.3763 18.5692 41.0747C18.1552 41.773 17.5609 42.3471 16.8487 42.7367L9.64872 47.0027C8.91771 47.3653 8.11274 47.5541 7.29672 47.5541C6.48069 47.5541 5.67572 47.3653 4.94472 47.0027C4.29639 46.5242 3.74635 45.9253 3.32472 45.2387C2.90758 44.5821 2.70038 43.814 2.73072 43.0367ZM2.73072 7.15666C2.742 6.36372 2.94957 5.58593 3.33487 4.8928C3.72018 4.19968 4.27121 3.61281 4.93871 3.18466C5.66972 2.82198 6.47469 2.63327 7.29072 2.63327C8.10674 2.63327 8.91171 2.82198 9.64272 3.18466C10.3102 3.61281 10.8613 4.19968 11.2466 4.8928C11.6319 5.58593 11.8394 6.36372 11.8507 7.15666C11.8799 7.98193 11.6717 8.79825 11.2507 9.50866C10.911 10.2174 10.3395 10.789 9.63072 11.1287C8.92247 11.5613 8.10863 11.7902 7.27871 11.7902C6.4488 11.7902 5.63496 11.5613 4.92672 11.1287C4.23811 10.7244 3.67091 10.1423 3.28455 9.44351C2.8982 8.74469 2.7069 7.95482 2.73072 7.15666ZM20.0827 25.0967C20.0761 24.8246 20.1249 24.554 20.226 24.3014C20.3271 24.0487 20.4784 23.8192 20.6708 23.6268C20.8633 23.4344 21.0928 23.283 21.3454 23.1819C21.5981 23.0808 21.8687 23.0321 22.1407 23.0387C22.411 23.0387 22.6786 23.0919 22.9283 23.1953C23.178 23.2987 23.4048 23.4503 23.5959 23.6414C23.787 23.8325 23.9386 24.0594 24.0421 24.3091C24.1455 24.5588 24.1987 24.8264 24.1987 25.0967C24.1987 25.3669 24.1455 25.6345 24.0421 25.8842C23.9386 26.1339 23.787 26.3608 23.5959 26.5519C23.4048 26.743 23.178 26.8946 22.9283 26.998C22.6786 27.1014 22.411 27.1547 22.1407 27.1547C21.8687 27.1612 21.5981 27.1125 21.3454 27.0114C21.0928 26.9103 20.8633 26.759 20.6708 26.5665C20.4784 26.3741 20.3271 26.1446 20.226 25.8919C20.1249 25.6393 20.0761 25.3687 20.0827 25.0967ZM23.4667 28.3307L27.0007 26.2727L50.5207 39.8027L45.6667 41.1287L23.4667 28.3307ZM23.4667 21.8627L45.6667 9.07066L50.5207 10.3967L27.0007 23.9207L23.4667 21.8627Z" fill="#212121"/>
</svg>
